<svg width="84" height="54" viewBox="0 0 84 54" fill="none" xmlns="http://www.w3.org/2000/svg">
<path d="M43.2484 0H45.1526L46.5068 0.0872375L47.9456 0.261712L49.4267 0.523425L51.0348 0.915994L52.5582 1.3958L53.7431 1.83199L55.2242 2.48627L56.0282 2.87884L56.9592 3.40226L57.8479 3.92569L58.9058 4.62359L59.6675 5.19063L60.3869 5.75767L61.064 6.32472L61.6987 6.89176L62.3335 7.50242L63.5184 8.72375L63.8146 9.0727L64.3224 9.68336L64.8725 10.3813L65.3804 11.0792L65.9728 11.9515L66.4383 12.6931L66.9884 13.6527L67.4962 14.6123L68.004 15.6591L68.5118 16.8805L69.062 18.4071L69.4851 19.8465L69.6967 20.7189V20.8061L70.67 20.937L72.0242 21.2423L73.2514 21.6349L74.6055 22.2019L75.6212 22.7254L76.4675 23.2488L77.2715 23.8158L77.8217 24.252L78.2872 24.6446L78.795 25.1244L79.1335 25.4297L79.6836 25.9968L79.9798 26.3457L80.4877 26.9564L81.0801 27.7851L81.5033 28.4394L81.8841 29.0937L82.3496 29.9661L82.8997 31.2746L83.4076 32.8449L83.6615 33.8918L83.873 35.2003L83.9577 36.0727L84 36.8578V37.8174L83.9154 39.0824L83.7461 40.3037L83.4922 41.4814L83.1113 42.7464L82.7728 43.6624L82.3073 44.7092L81.7995 45.6688L81.2917 46.4976L80.8685 47.1082L80.4453 47.6753L79.9375 48.2859L79.472 48.8094L78.668 49.6381L78.2025 50.0307L77.6524 50.5105L76.8907 51.0775L76.0866 51.601L75.4096 51.9935L74.6055 52.4297L73.3783 52.9531L72.2358 53.3457L71.0509 53.651L69.8237 53.8691L69.062 53.9564L68.3849 54H30.2992L29.8761 53.9128L29.4529 53.7383L29.072 53.433L28.7335 53.0404L28.5219 52.6042L28.395 52.168V51.4265L28.5642 50.8594L28.8605 50.3796L29.1567 50.0743L29.5798 49.8126L30.003 49.6381L30.2569 49.5945L68.4695 49.5509L69.6121 49.42L70.6277 49.2019L71.6433 48.8966L72.5743 48.504L73.3783 48.1115L74.0977 47.6753L74.7748 47.1955L75.3249 46.7593L75.9597 46.1922L76.6368 45.4943L77.0176 45.0145L77.5678 44.273L78.0332 43.5315L78.5411 42.5719L78.9219 41.6559L79.2605 40.609L79.472 39.6931L79.6413 38.559L79.6836 37.9483V36.727L79.599 35.7237L79.3874 34.546L79.0912 33.4556L78.7526 32.5396L78.2448 31.4491L77.7793 30.664L77.2715 29.9225L76.806 29.3554L76.5098 29.0065L75.7058 28.1777L75.2403 27.7851L74.5632 27.2617L73.6746 26.6947L72.9552 26.3021L71.9395 25.8659L70.8393 25.517L69.866 25.2989L68.8927 25.168L67.8771 25.1244L67.327 25.0372L66.9461 24.8627L66.5652 24.601L66.1844 24.2084L65.8882 23.5977L65.5496 21.8966L65.1688 20.4136L64.661 18.8869L64.1531 17.6656L63.5607 16.4006L63.0106 15.3974L62.4181 14.4378L61.9103 13.6963L61.4872 13.1292L61.1486 12.6931L60.6831 12.126L60.3023 11.6898L59.7945 11.1228L59.2443 10.5557L58.9058 10.2504L58.4403 9.81422L57.8479 9.33441L57.0861 8.72375L55.8166 7.85137L55.1819 7.4588L54.2509 6.93538L53.0237 6.32472L51.7542 5.80129L50.4846 5.3651L49.2151 5.01615L47.6917 4.71082L46.4222 4.53635L45.2373 4.44911H43.0368L41.598 4.57997L40.2015 4.79806L38.6781 5.14701L37.3662 5.53958L35.9698 6.063L34.7426 6.63005L33.8116 7.10985L32.796 7.72052L31.9919 8.24394L31.2302 8.81099L30.7224 9.20355L30.0453 9.7706L29.6222 10.1632L29.2836 10.4685L28.6065 11.1228L28.0141 11.7771L27.5909 12.2569L27.2101 12.7367L26.6176 13.5218L26.1098 14.2633L25.6443 15.0048L25.2635 15.6591L24.8403 16.4443L24.0363 18.1018L23.6977 18.4943L23.2746 18.7997L22.6821 19.0178H21.8358L20.6086 18.8433L19.9738 18.7997H18.4927L17.4348 18.8869L16.1652 19.105L14.9804 19.4103L13.8378 19.8029L12.7798 20.2827L11.7219 20.8498L10.9179 21.3732L10.3254 21.8094L9.733 22.2892L9.14055 22.8126L8.84433 23.1179L8.50579 23.4233L8.20957 23.7722L7.7864 24.252L7.32091 24.8627L6.77078 25.6478L6.13602 26.7383L5.79748 27.3926L5.33199 28.483L4.95113 29.5735L4.65491 30.7076L4.44332 31.8853L4.31637 33.063L4.27406 34.5024L4.35869 35.811L4.52796 36.9887L4.78186 38.1664L5.1204 39.3005L5.58589 40.4782L5.96675 41.3069L6.47456 42.2229L6.98237 43.0081L7.49018 43.706L7.87103 44.1858L8.33652 44.7092L8.71738 45.1454L9.35214 45.7561L9.94458 46.2359L10.5793 46.6721L11.3411 47.1082L12.1451 47.4572L12.9491 47.7189L13.7108 47.8934L14.261 47.9806L14.8111 48.0242H15.7421L16.5884 47.937L17.6463 47.7189L18.662 47.37L19.7199 46.8465L20.5239 46.3231L21.1164 45.8433L22.6398 44.622L23.2322 44.1422L33.8962 35.5929L34.4887 35.1131L39.0589 31.4491L39.6514 30.9693H39.736V30.8821L39.3552 30.7512L37.7894 30.0097L36.266 29.3118L34.7849 28.6139L33.2615 27.916L31.4841 27.0872L31.1456 26.9128L31.3572 26.6947L31.7804 26.3021L32.3728 25.8223L33.0076 25.517L33.473 25.3861L34.1501 25.3425L34.9542 25.4733L43.9254 27.3926H44.137L44.8141 26.8255L45.4912 26.3021L46.1259 25.7787L46.8453 25.2116L47.4801 24.6882L48.0302 24.252L48.7919 23.6414L49.3844 23.2488L50.0615 22.8998L50.8232 22.6381L51.5426 22.5073H52.8544L53.7008 22.6817L54.3355 22.8998L55.0126 23.2488L55.4781 23.5541L55.2665 23.7722L54.7164 24.252L54.1239 24.7318L53.4469 25.2989L52.8544 25.7787L52.1773 26.3457L51.5849 26.8255L50.9078 27.3926L50.3154 27.8724L49.6383 28.4394L49.0458 28.9192L48.3688 29.4863L47.7763 29.9661L47.0992 30.5331L46.5068 31.0129L45.8297 31.58L45.2373 32.0598L44.5602 32.6268L43.9678 33.1066L43.2907 33.6737L42.6982 34.1535L41.9788 34.7641L41.3864 35.2439L40.7093 35.811L40.1169 36.2908L39.4398 36.8578L38.8474 37.3376L38.1703 37.9047L37.5778 38.3845L36.9008 38.9515L36.3083 39.4313L35.6312 39.9984L35.0388 40.4782L34.3617 41.0452L33.7693 41.525L33.0922 42.0921L32.4997 42.5719L31.8227 43.1389L31.2302 43.6187L30.5531 44.1858L29.9607 44.6656L29.2836 45.2326L28.6912 45.7124L28.0141 46.2795L27.4217 46.7593L26.7446 47.3263L26.1521 47.8061L25.4751 48.3732L24.8826 48.853L24.2055 49.42L23.4438 49.9871L22.3859 50.6414L21.5819 51.0775L20.5662 51.5137L19.4237 51.9063L18.3657 52.168L17.3501 52.3425L16.5461 52.4297H14.5572L13.4146 52.2989L12.3144 52.0808L11.2564 51.7754L10.4101 51.4701L9.35214 50.9903L8.54811 50.5541L7.74408 50.0307L7.10932 49.5509L6.68615 49.2019L6.0937 48.6785L4.95113 47.5008L4.65491 47.1519L4.18942 46.5848L3.68161 45.8869L3.08917 45.0145L2.58136 44.1422L2.15819 43.357L1.6927 42.3974L1.2272 41.2197L0.719395 39.6494L0.380856 38.2536L0.126952 36.6834L0 35.2439V33.063L0.126952 31.6672L0.296222 30.5331L0.592443 29.1373L0.9733 27.8288L1.39647 26.651L2.03123 25.2116L2.53904 24.252L3.1738 23.2052L3.59698 22.5945L3.97783 22.0711L4.52796 21.3732L4.95113 20.8934L5.24736 20.5444L6.26297 19.4976L6.60151 19.1922L7.15164 18.7124L7.99798 18.0582L9.14055 17.273L9.94458 16.7932L10.9179 16.2698L11.7642 15.8772L12.9914 15.3974L14.261 15.0048L15.5305 14.6995L16.927 14.4814L17.8156 14.3942L18.5773 14.3506H19.8469L21.0317 14.3942L21.4549 13.5654L22.0474 12.5622L22.6398 11.6462L23.1899 10.8611L23.6131 10.294L23.994 9.81422L24.4594 9.24717L24.9249 8.72375L25.3058 8.28756L26.3637 7.19709L26.7023 6.89176L27.1254 6.49919L27.5909 6.10662L28.2257 5.5832L29.0297 4.97254L30.2992 4.10016L30.934 3.70759L31.8227 3.18417L32.5421 2.7916L33.727 2.22456L34.9965 1.70113L36.4776 1.17771L37.7048 0.828756L38.9743 0.523425L40.4554 0.261712L41.9365 0.0872375L43.2484 0Z" fill="#000000"/>
</svg>
